<svg width="1280" height="774" viewBox="0 0 1280 774" fill="none" xmlns="http://www.w3.org/2000/svg">
<g opacity="0.23">
<path opacity="0.23" d="M254.825 3.59528V59.5171H169.149" stroke="#F3ECEB" stroke-width="6" stroke-miterlimit="10" stroke-linecap="round" stroke-linejoin="round"/>
<path opacity="0.23" d="M340.362 59.5171H254.825V3.59528" stroke="#F3ECEB" stroke-width="6" stroke-miterlimit="10" stroke-linecap="round" stroke-linejoin="round"/>
<path opacity="0.23" d="M297.593 59.5171H211.918V115.258H297.593V59.5171Z" stroke="#F3ECEB" stroke-width="6" stroke-miterlimit="10" stroke-linecap="round" stroke-linejoin="round"/>
<path opacity="0.23" d="M279.046 171H254.825V115.258H340.362" stroke="#F3ECEB" stroke-width="6" stroke-miterlimit="10" stroke-linecap="round" stroke-linejoin="round"/>
<path opacity="0.23" d="M169.149 115.258H254.825V171H185.343" stroke="#F3ECEB" stroke-width="6" stroke-miterlimit="10" stroke-linecap="round" stroke-linejoin="round"/>
<path opacity="0.23" d="M139.945 59.5171H211.918V115.258H169.15" stroke="#F3ECEB" stroke-width="6" stroke-miterlimit="10" stroke-linecap="round" stroke-linejoin="round"/>
<path opacity="0.23" d="M359.324 115.258H297.593V59.5171H327.213" stroke="#F3ECEB" stroke-width="6" stroke-miterlimit="10" stroke-linecap="round" stroke-linejoin="round"/>
</g>
<g opacity="0.23">
<path opacity="0.23" d="M117.922 419.765V475.507H32.2469" stroke="#F3ECEB" stroke-width="6" stroke-miterlimit="10" stroke-linecap="round" stroke-linejoin="round"/>
<path opacity="0.23" d="M203.459 475.507H117.922V419.765" stroke="#F3ECEB" stroke-width="6" stroke-miterlimit="10" stroke-linecap="round" stroke-linejoin="round"/>
<path opacity="0.23" d="M160.69 475.507H75.0154V531.248H160.69V475.507Z" stroke="#F3ECEB" stroke-width="6" stroke-miterlimit="10" stroke-linecap="round" stroke-linejoin="round"/>
<path opacity="0.23" d="M142.144 587.17H117.922V531.428H203.459" stroke="#F3ECEB" stroke-width="6" stroke-miterlimit="10" stroke-linecap="round" stroke-linejoin="round"/>
<path opacity="0.23" d="M32.2469 531.428H117.922V587.17H48.4408" stroke="#F3ECEB" stroke-width="6" stroke-miterlimit="10" stroke-linecap="round" stroke-linejoin="round"/>
<path opacity="0.23" d="M3.04248 475.507H75.0151V531.428H32.2468" stroke="#F3ECEB" stroke-width="6" stroke-miterlimit="10" stroke-linecap="round" stroke-linejoin="round"/>
<path opacity="0.23" d="M222.421 531.428H160.69V475.507H190.31" stroke="#F3ECEB" stroke-width="6" stroke-miterlimit="10" stroke-linecap="round" stroke-linejoin="round"/>
</g>
<g opacity="0.23">
<path opacity="0.23" d="M918.379 603V658.741H832.704" stroke="#F3ECEB" stroke-width="6" stroke-miterlimit="10" stroke-linecap="round" stroke-linejoin="round"/>
<path opacity="0.23" d="M1003.92 658.741H918.379V603" stroke="#F3ECEB" stroke-width="6" stroke-miterlimit="10" stroke-linecap="round" stroke-linejoin="round"/>
<path opacity="0.23" d="M961.148 658.741H875.473V714.483H961.148V658.741Z" stroke="#F3ECEB" stroke-width="6" stroke-miterlimit="10" stroke-linecap="round" stroke-linejoin="round"/>
<path opacity="0.23" d="M942.601 770.405H918.379V714.663H1003.92" stroke="#F3ECEB" stroke-width="6" stroke-miterlimit="10" stroke-linecap="round" stroke-linejoin="round"/>
<path opacity="0.23" d="M832.704 714.663H918.379V770.405H848.898" stroke="#F3ECEB" stroke-width="6" stroke-miterlimit="10" stroke-linecap="round" stroke-linejoin="round"/>
<path opacity="0.23" d="M803.5 658.741H875.473V714.663H832.704" stroke="#F3ECEB" stroke-width="6" stroke-miterlimit="10" stroke-linecap="round" stroke-linejoin="round"/>
<path opacity="0.23" d="M1022.88 714.663H961.148V658.741H990.767" stroke="#F3ECEB" stroke-width="6" stroke-miterlimit="10" stroke-linecap="round" stroke-linejoin="round"/>
</g>
<g opacity="0.23">
<path opacity="0.23" d="M1162.08 222.055V277.796H1247.75" stroke="#F3ECEB" stroke-width="6" stroke-miterlimit="10" stroke-linecap="round" stroke-linejoin="round"/>
<path opacity="0.23" d="M1076.54 277.796H1162.08V222.055" stroke="#F3ECEB" stroke-width="6" stroke-miterlimit="10" stroke-linecap="round" stroke-linejoin="round"/>
<path opacity="0.23" d="M1119.22 333.718H1204.89V277.977H1119.22V333.718Z" stroke="#F3ECEB" stroke-width="6" stroke-miterlimit="10" stroke-linecap="round" stroke-linejoin="round"/>
<path opacity="0.23" d="M1137.72 389.459H1162.08V333.718H1076.54" stroke="#F3ECEB" stroke-width="6" stroke-miterlimit="10" stroke-linecap="round" stroke-linejoin="round"/>
<path opacity="0.23" d="M1247.75 333.718H1162.08V389.459H1194.19" stroke="#F3ECEB" stroke-width="6" stroke-miterlimit="10" stroke-linecap="round" stroke-linejoin="round"/>
<path opacity="0.23" d="M1276.96 277.796H1204.85V333.718H1247.75" stroke="#F3ECEB" stroke-width="6" stroke-miterlimit="10" stroke-linecap="round" stroke-linejoin="round"/>
<path opacity="0.23" d="M1057.44 333.718H1119.31V277.796H1089.55" stroke="#F3ECEB" stroke-width="6" stroke-miterlimit="10" stroke-linecap="round" stroke-linejoin="round"/>
</g>
</svg>
