<svg width="24" height="24" viewBox="0 0 24 24" fill="none" xmlns="http://www.w3.org/2000/svg">
<path d="M15.529 11.8038C15.529 13.7512 13.9553 15.3248 12.0079 15.3248C10.0605 15.3248 8.48688 13.7512 8.48688 11.8038C8.48688 9.85637 10.0605 8.28271 12.0079 8.28271C13.9553 8.28271 15.529 9.85637 15.529 11.8038Z" stroke="#292D32" stroke-width="1.47531" stroke-linecap="round" stroke-linejoin="round"/>
<path d="M12.0081 19.9376C15.48 19.9376 18.7158 17.8918 20.9681 14.3511C21.8533 12.9643 21.8533 10.6333 20.9681 9.24653C18.7158 5.70579 15.48 3.66003 12.0081 3.66003C8.53618 3.66003 5.30034 5.70579 3.04804 9.24653C2.16286 10.6333 2.16286 12.9643 3.04804 14.3511C5.30034 17.8918 8.53618 19.9376 12.0081 19.9376Z" stroke="#292D32" stroke-width="1.47531" stroke-linecap="round" stroke-linejoin="round"/>
</svg>
