<svg width="25" height="25" viewBox="0 0 25 25" fill="none" xmlns="http://www.w3.org/2000/svg">
<path d="M14.5 10.1989V13.0989H17.1C17.3 13.0989 17.4 13.2989 17.4 13.4989L17 15.3989C17 15.4989 16.8 15.5989 16.7 15.5989H14.5V22.8989H11.5V15.6989H9.8C9.6 15.6989 9.5 15.5989 9.5 15.3989V13.4989C9.5 13.2989 9.6 13.1989 9.8 13.1989H11.5V9.89893C11.5 8.19893 12.8 6.89893 14.5 6.89893H17.2C17.4 6.89893 17.5 6.99893 17.5 7.19893V9.59893C17.5 9.79893 17.4 9.89893 17.2 9.89893H14.8C14.6 9.89893 14.5 9.99893 14.5 10.1989Z" fill="#3B3B3B"/>
<path d="M15.5 22.8989H9.5C4.5 22.8989 2.5 20.8989 2.5 15.8989V9.89893C2.5 4.89893 4.5 2.89893 9.5 2.89893H15.5C20.5 2.89893 22.5 4.89893 22.5 9.89893V15.8989C22.5 20.8989 20.5 22.8989 15.5 22.8989Z" stroke="#3B3B3B" stroke-width="1.5" stroke-linecap="round" stroke-linejoin="round"/>
</svg>
