<svg width="25" height="25" viewBox="0 0 25 25" fill="none" xmlns="http://www.w3.org/2000/svg">
<path d="M22.1 11.0989H12.7V14.7989H18.2C18.1 15.6989 17.5 17.0989 16.2 17.9989C15.4 18.5989 14.2 18.9989 12.7 18.9989C10.1 18.9989 7.79995 17.2989 6.99995 14.7989C6.79995 14.1989 6.69995 13.4989 6.69995 12.7989C6.69995 12.0989 6.79995 11.3989 6.99995 10.7989C7.09995 10.5989 7.09995 10.3989 7.19995 10.2989C8.09995 8.19893 10.2 6.69893 12.7 6.69893C14.6 6.69893 15.8 7.49893 16.6 8.19893L19.4 5.39893C17.7 3.89893 15.4 2.89893 12.7 2.89893C8.79995 2.89893 5.39995 5.09893 3.79995 8.39893C3.09995 9.79893 2.69995 11.2989 2.69995 12.8989C2.69995 14.4989 3.09995 15.9989 3.79995 17.3989C5.39995 20.6989 8.79995 22.8989 12.7 22.8989C15.4 22.8989 17.6999 21.9989 19.2999 20.4989C21.1999 18.7989 22.2999 16.1989 22.2999 13.0989C22.2999 12.2989 22.2 11.6989 22.1 11.0989Z" fill="#3B3B3B"/>
</svg>
