<svg width="46" height="46" viewBox="0 0 46 46" fill="none" xmlns="http://www.w3.org/2000/svg">
<path d="M10.7375 35.5677V30.0927C10.7375 28.2739 12.1625 26.6427 14.1875 26.6427C16.0062 26.6427 17.6375 28.0677 17.6375 30.0927V35.3614C17.6375 39.0177 14.6 42.0552 10.9438 42.0552C7.2875 42.0552 4.25 38.9989 4.25 35.3614V23.8114C4.04375 13.2739 12.3688 4.74268 22.9062 4.74268C33.4437 4.74268 41.75 13.2739 41.75 23.6052V35.1552C41.75 38.8114 38.7125 41.8489 35.0562 41.8489C31.4 41.8489 28.3625 38.8114 28.3625 35.1552V29.8864C28.3625 28.0677 29.7875 26.4364 31.8125 26.4364C33.6313 26.4364 35.2625 27.8614 35.2625 29.8864V35.5677" stroke="#874439" stroke-width="2.5" stroke-linecap="round" stroke-linejoin="round"/>
</svg>
