<svg width="25" height="25" viewBox="0 0 25 25" fill="none" xmlns="http://www.w3.org/2000/svg">
<path d="M12.3455 10.0604L15.2273 12.8877V12.7446C15.2273 12.0327 14.9399 11.35 14.4285 10.8466C13.917 10.3432 13.2233 10.0604 12.5 10.0604H12.3455ZM8.43636 10.7762L9.84545 12.163C9.8 12.3509 9.77273 12.5388 9.77273 12.7446C9.77273 13.4565 10.0601 14.1392 10.5715 14.6426C11.083 15.146 11.7767 15.4288 12.5 15.4288C12.7 15.4288 12.9 15.402 13.0909 15.3572L14.5 16.7441C13.8909 17.0393 13.2182 17.2183 12.5 17.2183C11.2945 17.2183 10.1383 16.7469 9.28588 15.908C8.43344 15.069 7.95455 13.9311 7.95455 12.7446C7.95455 12.0377 8.13636 11.3756 8.43636 10.7762ZM3.40909 5.82827L5.48182 7.86827L5.89091 8.2709C4.39091 9.43406 3.20909 10.9551 2.5 12.7446C4.07273 16.6725 7.95455 19.4551 12.5 19.4551C13.9091 19.4551 15.2545 19.1867 16.4818 18.7035L16.8727 19.0793L19.5273 21.692L20.6818 20.5556L4.56364 4.69196M12.5 8.2709C13.7055 8.2709 14.8617 8.74224 15.7141 9.58121C16.5666 10.4202 17.0455 11.5581 17.0455 12.7446C17.0455 13.3172 16.9273 13.872 16.7182 14.373L19.3818 16.9946C20.7455 15.8762 21.8364 14.4088 22.5 12.7446C20.9273 8.81669 17.0455 6.03406 12.5 6.03406C11.2273 6.03406 10.0091 6.25774 8.86364 6.66038L10.8364 8.58406C11.3545 8.38722 11.9091 8.2709 12.5 8.2709Z" fill="#95B29B"/>
</svg>
