<svg width="18" height="18" viewBox="0 0 18 18" fill="none" xmlns="http://www.w3.org/2000/svg">
<path d="M1.89203 1.63214H3.1399C3.91443 1.63214 4.52402 2.2991 4.45947 3.06647L3.86423 10.2094C3.76382 11.3784 4.68896 12.3824 5.86511 12.3824H13.5029C14.5356 12.3824 15.4392 11.5362 15.5181 10.5106L15.9054 5.1319C15.9914 3.94141 15.0878 2.97323 13.8902 2.97323H4.6316" stroke="white" stroke-width="1.47531" stroke-miterlimit="10" stroke-linecap="round" stroke-linejoin="round"/>
<path d="M12.1116 15.9754C12.6067 15.9754 13.0081 15.574 13.0081 15.0789C13.0081 14.5839 12.6067 14.1825 12.1116 14.1825C11.6165 14.1825 11.2151 14.5839 11.2151 15.0789C11.2151 15.574 11.6165 15.9754 12.1116 15.9754Z" stroke="white" stroke-width="1.47531" stroke-miterlimit="10" stroke-linecap="round" stroke-linejoin="round"/>
<path d="M6.37436 15.9754C6.86946 15.9754 7.27081 15.574 7.27081 15.0789C7.27081 14.5839 6.86946 14.1825 6.37436 14.1825C5.87926 14.1825 5.47791 14.5839 5.47791 15.0789C5.47791 15.574 5.87926 15.9754 6.37436 15.9754Z" stroke="white" stroke-width="1.47531" stroke-miterlimit="10" stroke-linecap="round" stroke-linejoin="round"/>
<path d="M6.91217 5.93512H15.5181" stroke="white" stroke-width="1.47531" stroke-miterlimit="10" stroke-linecap="round" stroke-linejoin="round"/>
</svg>
