<svg width="25" height="25" viewBox="0 0 25 25" fill="none" xmlns="http://www.w3.org/2000/svg">
<path d="M7.4 21.4989C8.9 22.3989 10.7 22.8989 12.5 22.8989C18 22.8989 22.5 18.3989 22.5 12.8989C22.5 7.39893 18 2.89893 12.5 2.89893C7 2.89893 2.5 7.39893 2.5 12.8989C2.5 14.6989 3 16.3989 3.8 17.8989L2.94044 21.2049C2.74572 21.9538 3.43892 22.6307 4.18299 22.4181L7.4 21.4989Z" stroke="#3B3B3B" stroke-width="1.5" stroke-miterlimit="10" stroke-linecap="round" stroke-linejoin="round"/>
<path d="M17 15.7474C17 15.9094 16.9639 16.0759 16.8873 16.2379C16.8107 16.3999 16.7116 16.5529 16.5809 16.6969C16.36 16.9399 16.1167 17.1154 15.8418 17.2279C15.5714 17.3404 15.2784 17.3989 14.9629 17.3989C14.5033 17.3989 14.012 17.2909 13.4937 17.0704C12.9755 16.8499 12.4572 16.5529 11.9434 16.1794C11.4251 15.8014 10.9339 15.3829 10.4652 14.9194C10.001 14.4514 9.58187 13.9609 9.20781 13.4479C8.83826 12.9349 8.54081 12.4219 8.32449 11.9134C8.10816 11.4004 8 10.9099 8 10.4419C8 10.1359 8.05408 9.84343 8.16224 9.57343C8.27041 9.29893 8.44166 9.04693 8.68052 8.82193C8.96895 8.53843 9.28443 8.39893 9.61793 8.39893C9.74412 8.39893 9.87031 8.42593 9.98297 8.47993C10.1002 8.53393 10.2038 8.61493 10.2849 8.73193L11.3305 10.2034C11.4116 10.3159 11.4702 10.4194 11.5108 10.5184C11.5513 10.6129 11.5739 10.7074 11.5739 10.7929C11.5739 10.9009 11.5423 11.0089 11.4792 11.1124C11.4206 11.2159 11.335 11.3239 11.2268 11.4319L10.8843 11.7874C10.8348 11.8369 10.8122 11.8954 10.8122 11.9674C10.8122 12.0034 10.8167 12.0349 10.8257 12.0709C10.8393 12.1069 10.8528 12.1339 10.8618 12.1609C10.9429 12.3094 11.0826 12.5029 11.2809 12.7369C11.4837 12.9709 11.7 13.2094 11.9344 13.4479C12.1778 13.6864 12.4121 13.9069 12.651 14.1094C12.8853 14.3074 13.0791 14.4424 13.2323 14.5234C13.2549 14.5324 13.2819 14.5459 13.3135 14.5594C13.3495 14.5729 13.3856 14.5774 13.4261 14.5774C13.5028 14.5774 13.5613 14.5504 13.6109 14.5009L13.9534 14.1634C14.0661 14.0509 14.1743 13.9654 14.2779 13.9114C14.3816 13.8484 14.4852 13.8169 14.5979 13.8169C14.6835 13.8169 14.7737 13.8349 14.8728 13.8754C14.972 13.9159 15.0756 13.9744 15.1883 14.0509L16.68 15.1084C16.7972 15.1894 16.8783 15.2839 16.9279 15.3964C16.973 15.5089 17 15.6214 17 15.7474Z" fill="#3B3B3B"/>
</svg>
